<svg id="ATT_logo" data-name="ATT logo" xmlns="http://www.w3.org/2000/svg" width="440.703" height="144" viewBox="0 0 440.703 144">
  <g id="Artwork_37" data-name="Artwork 37" transform="translate(220.352 72)">
    <g id="Group_48" data-name="Group 48" transform="translate(-220.352 -72)">
      <g id="Group_47" data-name="Group 47">
        <path id="Path_140" data-name="Path 140" d="M401.461,115.27a2.263,2.263,0,0,1-2.369-2.373V43.356H375.477a2.262,2.262,0,0,1-2.371-2.372V31.393a2.264,2.264,0,0,1,2.371-2.375h62.858a2.262,2.262,0,0,1,2.368,2.375v9.591a2.26,2.26,0,0,1-2.368,2.372H414.723V112.9a2.265,2.265,0,0,1-2.371,2.373ZM220.576,80.554l-12.4-35.579L195.671,80.554Zm27.494,31.91a1.974,1.974,0,0,1-1.833,2.806H235.024A3.024,3.024,0,0,1,231.9,113l-6.361-18.326h-34.82L184.35,113a3.022,3.022,0,0,1-3.125,2.266H170.66a2.012,2.012,0,0,1-1.832-2.806l29.216-81.29a2.939,2.939,0,0,1,3.125-2.154h14.449a3.061,3.061,0,0,1,3.233,2.154l29.219,81.29m83.745-8.839c6.9,0,11.534-3.34,15.308-9.054L329.66,75.808c-6.688,3.777-11,7.547-11,15.1,0,7.44,6.037,12.72,13.157,12.72m4.849-63.18c-5.6,0-8.839,3.56-8.839,8.3,0,3.667,1.938,6.9,6.36,11.644,7.653-4.42,10.889-7.114,10.889-11.858,0-4.422-2.8-8.089-8.41-8.089m47.763,71.807c1.4,1.51.541,3.018-1.189,3.018H369.549a4.452,4.452,0,0,1-3.992-1.835l-8.191-9.052c-5.5,7.331-13.157,12.828-25.876,12.828-15.741,0-28.14-9.486-28.14-25.766,0-12.509,6.685-19.193,16.819-24.8-4.958-5.716-7.223-11.752-7.223-17.033,0-13.373,9.38-22.536,23.5-22.536,14.449,0,23.288,8.521,23.288,21.134,0,10.778-7.761,16.814-15.957,21.346l12.076,13.048,6.793-11.864A3.641,3.641,0,0,1,366.2,68.8h10.456c1.728,0,2.7,1.191,1.622,3.021L366.2,92.519l18.222,19.733M276.836,115.27a2.267,2.267,0,0,0,2.373-2.373V43.356h23.61a2.263,2.263,0,0,0,2.371-2.372V31.393a2.265,2.265,0,0,0-2.371-2.375H239.961a2.263,2.263,0,0,0-2.37,2.375v9.591a2.261,2.261,0,0,0,2.37,2.372h23.611V112.9a2.266,2.266,0,0,0,2.37,2.373Z"/>
        <path id="Path_141" data-name="Path 141" d="M27.85,128.867a71.958,71.958,0,0,0,91.582-2.716c.152-.134.078-.227-.072-.134-5.681,3.794-21.87,12.077-47.359,12.077-22.153,0-36.151-4.944-44.059-9.359-.149-.074-.206.039-.092.132m49.037,3.679c17.718,0,37.189-4.83,48.831-14.4a38.923,38.923,0,0,0,8.943-10.735,68.868,68.868,0,0,0,4.34-9c.057-.151-.039-.226-.152-.057C128.02,114.3,96.662,124.244,64.284,124.244c-22.887,0-47.511-7.32-57.151-21.3-.095-.131-.191-.074-.134.076,8.984,19.094,36.229,29.528,69.888,29.528m-19.358-31.68C20.681,100.866,3.3,83.7.152,71.981.113,71.809,0,71.848,0,72A71.326,71.326,0,0,0,1.076,84.414,14.466,14.466,0,0,0,4.7,90.7c8.924,9.3,31.17,22.34,69.7,22.34,52.492,0,64.493-17.49,66.943-23.245C143.094,85.679,144,78.244,144,72c0-1.511-.039-2.718-.1-3.906,0-.189-.111-.207-.15-.02-2.623,14.077-47.472,32.792-86.226,32.792M6.942,41.112A71.564,71.564,0,0,0,1.794,56.036a4.771,4.771,0,0,0,.376,3.492C6.587,68.9,28.926,83.906,81.039,83.906c31.791,0,56.49-7.813,60.49-22.075a16.924,16.924,0,0,0-.17-9.133,69.814,69.814,0,0,0-4.716-12.453c-.056-.114-.152-.095-.134.036C137.132,58.981,85,71.037,58.7,71.037c-28.491,0-52.263-11.358-52.263-25.7a17.388,17.388,0,0,1,.641-4.188c.036-.131-.077-.152-.134-.038M119.548,18.15A2.911,2.911,0,0,1,120,19.81c0,8-24.472,22.152-63.434,22.152-28.625,0-33.982-10.623-33.982-17.379a11.669,11.669,0,0,1,2.963-7.394c.114-.152.018-.209-.113-.095A72.058,72.058,0,0,0,15.3,27.623c-1.434,1.811-2.322,3.415-2.322,4.376,0,14,35.094,24.151,67.906,24.151,34.962,0,50.567-11.415,50.567-21.452,0-3.586-1.395-5.68-4.963-9.737a85.177,85.177,0,0,0-6.829-6.906c-.114-.093-.191-.018-.114.095m-10.719-8a71.9,71.9,0,0,0-74.168.3c-3.246,2-5.076,3.6-5.076,5.661,0,6.076,14.188,12.6,39.358,12.6,24.908,0,44.227-7.152,44.227-14.038,0-1.642-1.434-2.793-4.341-4.528" fill="#009fdb"/>
      </g>
    </g>
  </g>
</svg>
