<svg id="ford_logo" data-name="ford logo" xmlns="http://www.w3.org/2000/svg" xmlns:xlink="http://www.w3.org/1999/xlink" width="236.333" height="118.166" viewBox="0 0 236.333 118.166">
  <defs>
    <clipPath id="clip-path">
      <rect id="Rectangle_125" data-name="Rectangle 125" width="236.333" height="118.166" fill="none"/>
    </clipPath>
  </defs>
  <g id="Group_84" data-name="Group 84">
    <g id="Group_83" data-name="Group 83" clip-path="url(#clip-path)">
      <path id="Path_1856" data-name="Path 1856" d="M118.2,23.642c-52.489,0-94.565,15.733-94.565,35.459,0,19.6,42.422,35.46,94.565,35.46s94.566-15.908,94.566-35.46S170.345,23.642,118.2,23.642" fill="#09053e"/>
      <path id="Path_1857" data-name="Path 1857" d="M173.757,48.93c.123-.217-.006-.375-.28-.375l-4.779,0c-.354,0-.536.043-.7.372-.548,1.05-7.227,11.058-8.47,13-.209.3-.465.254-.494-.083a4.186,4.186,0,0,0-2.694-3.116,6.839,6.839,0,0,0-3.585-.412,12.762,12.762,0,0,0-5.873,2.761c-2.594,1.971-4.831,4.526-7.719,6.414-1.577,1.028-3.735,1.924-5.18.586-1.308-1.212-1.16-3.9.84-5.986.211-.219.464-.037.424.16A2.643,2.643,0,0,0,136,64.791a2.854,2.854,0,0,0,3.19.35,4.187,4.187,0,0,0,2.22-3.2,3.644,3.644,0,0,0-3.349-4.149,6.684,6.684,0,0,0-4.811,1.744,9.2,9.2,0,0,0-1.9,2.082c-.164.235-.416.26-.408-.089.078-2.721-1.048-4.252-3.3-4.3a8.384,8.384,0,0,0-5.065,2.064,46.916,46.916,0,0,0-4.48,4.57c-.187.2-.349.187-.4-.193a9.19,9.19,0,0,0-1.333-4.789,1.108,1.108,0,0,0-1.439-.353,10.441,10.441,0,0,0-1.69,1.009.951.951,0,0,0-.287,1.074,12.59,12.59,0,0,1-.464,8.34,9.194,9.194,0,0,1-5.245,5.228,3.452,3.452,0,0,1-4.051-1.094c-1.333-1.847-.794-5.059,1.194-7.727a14.974,14.974,0,0,1,6.824-4.8.4.4,0,0,0,.274-.559c-.137-.417-.356-.983-.446-1.241-.232-.618-.883-.719-1.676-.633a14.29,14.29,0,0,0-5.138,1.722c-4.291,2.3-6.443,6.747-7.387,9.127A9.241,9.241,0,0,1,95.5,71.456a24.651,24.651,0,0,1-3.079,2.989.545.545,0,0,0-.127.629,6.76,6.76,0,0,0,1.194,1.57.693.693,0,0,0,.664-.134,16.079,16.079,0,0,0,3.024-2.695c.223-.272.451-.158.57.254a6.675,6.675,0,0,0,4.3,4.572c3.935,1.327,8.017-.594,11.1-3.938a44.033,44.033,0,0,0,3.415-4.422c1.272-1.576,3.781-5.1,6.769-7.366,1.1-.834,2.393-1.471,3.045-1.048.524.338.694,1.127-.147,2.654-3.047,5.565-7.53,12.1-8.352,13.687-.15.275-.018.491.269.491,1.594-.008,3.175,0,4.622,0a.552.552,0,0,0,.47-.29c2.338-3.662,4.539-7.145,6.9-10.747.132-.213.254-.048.26.045a5.967,5.967,0,0,0,.749,2.729,4.082,4.082,0,0,0,3.557,1.993,6.72,6.72,0,0,0,2.881-.605,10.151,10.151,0,0,0,2.367-1.27c.352-.244.414.164.4.227-.541,2.906.127,6.349,3.014,7.777,3.457,1.7,7.254-.692,9.438-2.854.215-.208.443-.187.466.263a3.977,3.977,0,0,0,1.1,2.49c1.83,1.838,5.526,1.11,9.233-1.76a46.485,46.485,0,0,0,7.121-7.182.322.322,0,0,0-.015-.45c-.342-.359-.839-.769-1.178-1.085a.424.424,0,0,0-.513,0c-2.306,2.194-4.383,4.695-7.383,6.763-1.011.707-2.624,1.276-3.349.3a1.607,1.607,0,0,1,.029-1.6c.874-2.181,14.724-23.268,15.443-24.511M155.45,66.613c.028.162.238.317.444.391.073.027.113.08.031.249a20.421,20.421,0,0,1-1.868,3.087,11.574,11.574,0,0,1-2.37,2.564c-1.4,1.156-3.336,2.415-4.94,1.568a2.424,2.424,0,0,1-1.006-2.173,11.38,11.38,0,0,1,2.907-6.89c2.273-2.8,4.785-4.249,6.434-3.456,1.706.814,1.161,2.789.4,4.34a.422.422,0,0,0-.031.32" fill="#fff"/>
      <path id="Path_1858" data-name="Path 1858" d="M73.295,78.616c-5.163.038-9.713-3.154-10.235-8.679A11.15,11.15,0,0,1,65.368,61.9a11.419,11.419,0,0,1,6.34-4.074,2.393,2.393,0,0,1,2.076.427,1.125,1.125,0,0,1-.179,1.843,10.67,10.67,0,0,0-4.7,4.331,5.311,5.311,0,0,0,.264,5.487c2.074,3.131,7.854,3.217,13.229-1.776a46.228,46.228,0,0,0,3.734-3.787,84.2,84.2,0,0,0,6.3-8.059.167.167,0,0,0,.032-.149c-.027-.055-.071-.071-.162-.077a9.6,9.6,0,0,0-5.712,2.016,1.113,1.113,0,0,1-1.574-.172,1.258,1.258,0,0,1,.49-1.689c2.864-1.992,5.993-2.354,9.187-2.892a.52.52,0,0,0,.4-.233c1.312-1.682,2.3-3.2,3.7-4.9a37.352,37.352,0,0,1,4.618-4.5,20.584,20.584,0,0,1,4.45-2.919c.333-.174-.042-.382-.143-.382-7.062-1.328-14.4-3.045-21.414-.448-4.857,1.812-6.985,5.664-5.962,8.237C81.075,50,83.476,50.3,85.723,49.2a12.162,12.162,0,0,0,4.82-4.288c.686-1.053,2.129-.293,1.349,1.537C89.84,51.273,85.919,55.1,81.144,55.26a6.27,6.27,0,0,1-6.678-6.547c.015-7.275,8.116-12.067,16.628-12.783,10.251-.848,19.959,1.882,30.137,3.117a65.54,65.54,0,0,0,23.112-.837,1.181,1.181,0,0,1,1.516,1.326c-.077,1.353-1.123,2.656-3.7,4.064a18.877,18.877,0,0,1-9.215,2.124c-7.757.065-14.982-2.958-22.459-4.583.01.327.095.718-.179.924-4.142,3.055-7.885,6.157-10.392,10.514-.086.1-.04.2.106.186,2.177-.115,4.135-.171,6.167-.333.355-.03.368-.118.337-.379a5.052,5.052,0,0,1,1.581-4.391,3.234,3.234,0,0,1,4.167-.478c1.276,1,1.163,2.783.465,4.124a4.971,4.971,0,0,1-3.01,2.441s-.235.053-.2.266c.046.344,1.58,1.195,1.71,1.421a.714.714,0,0,1-.171.805.971.971,0,0,1-.743.355,1.545,1.545,0,0,1-.759-.279,7.192,7.192,0,0,1-2.122-1.709c-.2-.243-.3-.249-.784-.223-2.2.128-5.629.459-7.952.75-.564.069-.647.174-.762.369-3.7,6.11-7.659,12.7-12,17.107-4.658,4.728-8.53,5.973-12.64,6m35.3-27.143c.059.314.181.374.323.348a3.394,3.394,0,0,0,1.935-1.394c.416-.61.611-1.491.2-1.843a1.094,1.094,0,0,0-1.413.166,3.134,3.134,0,0,0-1.042,2.723" fill="#fff"/>
      <path id="Path_1859" data-name="Path 1859" d="M118.2,91.477c-50.046,0-90.616-14.49-90.616-32.365S68.153,26.749,118.2,26.749s90.61,14.487,90.61,32.363S168.241,91.477,118.2,91.477m0-62.036c-48.288,0-87.429,13.343-87.429,29.671S69.911,88.787,118.2,88.787s87.427-13.345,87.427-29.675S166.487,29.441,118.2,29.441" fill="#fff"/>
    </g>
  </g>
</svg>
