<svg id="Component_1" data-name="Component 1" xmlns="http://www.w3.org/2000/svg" xmlns:xlink="http://www.w3.org/1999/xlink" width="925.23" height="443.279" viewBox="0 0 925.23 443.279">
  <defs>
    <clipPath id="clip-path">
      <rect id="Rectangle_97" data-name="Rectangle 97" width="925.23" height="443.279" fill="none"/>
    </clipPath>
  </defs>
  <rect id="Rectangle_96" data-name="Rectangle 96" width="925.23" height="443.279" fill="#f89c88"/>
  <g id="Group_41" data-name="Group 41">
    <g id="Group_40" data-name="Group 40" clip-path="url(#clip-path)">
      <path id="Path_117" data-name="Path 117" d="M2635.808,55.8H0C878.161,132.21,1759.83,208.924,2635.808,285.14Z" transform="translate(-1222.101 -55.799)" fill="#bf4d48"/>
      <path id="Path_118" data-name="Path 118" d="M474.168,38.4a202.507,202.507,0,0,1,32.554,20.612q-1.164-.9-2.328-1.8a205.605,205.605,0,0,1,36.483,36.454q-.9-1.164-1.8-2.333a174.514,174.514,0,0,1,22.609,38.381q-.578-1.374-1.159-2.753A245.251,245.251,0,0,1,571.046,159a283.216,283.216,0,0,1,7.176,34.261q-.206-1.532-.412-3.061c2.122,16.027,1.787,32.329,5.323,48.175,3,13.449,8.791,26.428,15.964,38.149,15.3,25.011,37.193,45.332,61.6,61.27A264.291,264.291,0,0,0,701.86,359.58c2.972,1.264,5.608,2.061,8.868,1.164a11.539,11.539,0,0,0,8.039-14.18c-.855-2.644-2.61-5.751-5.291-6.891a253.056,253.056,0,0,1-55.994-32.34l2.328,1.8A187.029,187.029,0,0,1,626.747,276.4q.9,1.168,1.8,2.333a142.868,142.868,0,0,1-18.535-31.189q.578,1.378,1.159,2.753a108.885,108.885,0,0,1-7.49-27.384l.412,3.064c-1.177-8.8-1.512-17.687-2.267-26.531a234.259,234.259,0,0,0-4.209-28.365c-3.587-17.046-8.173-34.158-14.89-50.252-11.757-28.165-30.519-53.076-53.58-72.985A215.035,215.035,0,0,0,485.786,18.5a12.21,12.21,0,0,0-8.867-1.161,11.73,11.73,0,0,0-6.878,5.3c-2.766,5.241-1.612,12.874,4.128,15.771" transform="translate(-453.995 -119.482)" fill="#962b4c"/>
      <path id="Path_119" data-name="Path 119" d="M495.916,93.814c1.676,26.149,6.93,52.213,16.909,76.485,9.889,24.058,23.6,46.272,41.88,64.87a175.644,175.644,0,0,0,60.98,40.4c24.037,9.445,50.1,11.5,75.706,11.214,25.737-.288,51.534-2.742,77.25-.575q4.751.4,9.483,1.032l-3.08-.414a137.329,137.329,0,0,1,34.792,9.2q-1.386-.586-2.769-1.169a114.09,114.09,0,0,1,24.784,14.573l-2.349-1.813a118.8,118.8,0,0,1,21.089,21.174q-.906-1.176-1.813-2.349a115.938,115.938,0,0,1,14.758,25.341q-.586-1.386-1.169-2.771,1.5,3.591,2.747,7.268c1.953,5.735,8.055,10.121,14.259,8.11,5.682-1.842,10.192-8.128,8.1-14.283-10.733-31.517-34.045-58.792-64.157-73.247C805.885,268.5,787.192,264.5,768,262.938c-17.88-1.454-35.842-.67-53.735-.011-20.34.755-40.8,1.415-61.027-1.306q1.54.21,3.08.414a150.778,150.778,0,0,1-38.212-10.382l2.769,1.172A160.426,160.426,0,0,1,586.1,232.342l2.346,1.816A174.907,174.907,0,0,1,557.365,203q.907,1.172,1.813,2.349a192.093,192.093,0,0,1-24.43-42.223q.586,1.386,1.169,2.774a228,228,0,0,1-15.55-57.958q.206,1.544.412,3.085-1.128-8.575-1.681-17.21A12.327,12.327,0,0,0,515.7,85.6a11.772,11.772,0,0,0-8.2-3.4c-5.946.267-12.008,5.12-11.591,11.61" transform="translate(-409.262 -12.529)" fill="#962b4c"/>
      <path id="Path_120" data-name="Path 120" d="M528.106,90.705a257.83,257.83,0,0,0,19.443,44.564A226.154,226.154,0,0,0,575.4,174.622a194.691,194.691,0,0,0,36.6,32.19,181,181,0,0,0,44.05,21.731,161.778,161.778,0,0,0,48.473,8.392q2.87.047,5.74-.018a12.043,12.043,0,0,0,8.195-3.4,11.608,11.608,0,0,0-8.195-19.817,146.394,146.394,0,0,1-22.422-1.243l3.08.414a159.28,159.28,0,0,1-40.279-11.092q1.386.586,2.768,1.169a174.185,174.185,0,0,1-38.492-22.557q1.172.91,2.346,1.816a191.321,191.321,0,0,1-33.884-34.19q.907,1.176,1.813,2.349a221.919,221.919,0,0,1-23.763-38.581q-2.8-5.776-5.289-11.7.586,1.389,1.169,2.774-3.785-9.026-6.857-18.324a12.3,12.3,0,0,0-5.328-6.938,11.584,11.584,0,0,0-15.859,4.165,11.672,11.672,0,0,0-1.169,8.947" transform="translate(-357.204 -22.684)" fill="#962b4c"/>
      <path id="Path_121" data-name="Path 121" d="M762.625,311.891a257.827,257.827,0,0,0-19.443-44.564,226.148,226.148,0,0,0-27.853-39.352,194.692,194.692,0,0,0-36.6-32.19,181,181,0,0,0-44.05-21.731,161.782,161.782,0,0,0-48.476-8.392q-2.866-.047-5.738.018a12.048,12.048,0,0,0-8.195,3.4,11.611,11.611,0,0,0,8.195,19.82,145.724,145.724,0,0,1,22.422,1.24q-1.54-.21-3.08-.414a159.171,159.171,0,0,1,40.278,11.092q-1.385-.586-2.768-1.169a174.179,174.179,0,0,1,38.492,22.557q-1.172-.911-2.346-1.816a191.227,191.227,0,0,1,33.884,34.19q-.906-1.176-1.813-2.349a221.931,221.931,0,0,1,23.763,38.582q2.8,5.776,5.289,11.7-.586-1.389-1.169-2.774,3.785,9.026,6.856,18.324A12.3,12.3,0,0,0,745.6,325a11.584,11.584,0,0,0,15.859-4.165,11.672,11.672,0,0,0,1.169-8.947" transform="translate(-289.659 124.249)" fill="#962b4c"/>
      <path id="Path_122" data-name="Path 122" d="M666.8,284.165A257.85,257.85,0,0,0,647.356,239.6,226.151,226.151,0,0,0,619.5,200.249a194.691,194.691,0,0,0-36.6-32.19,181,181,0,0,0-44.05-21.731,161.778,161.778,0,0,0-48.476-8.392q-2.866-.048-5.737.018a12.048,12.048,0,0,0-8.195,3.4,11.611,11.611,0,0,0,8.195,19.82,146.072,146.072,0,0,1,22.422,1.24l-3.08-.414a159.172,159.172,0,0,1,40.279,11.092q-1.386-.586-2.768-1.169a174.185,174.185,0,0,1,38.492,22.557q-1.172-.911-2.346-1.816a191.317,191.317,0,0,1,33.884,34.19q-.907-1.176-1.813-2.349a221.909,221.909,0,0,1,23.763,38.581q2.8,5.776,5.289,11.7-.586-1.39-1.169-2.774,3.784,9.026,6.857,18.324a12.3,12.3,0,0,0,5.328,6.938,11.584,11.584,0,0,0,15.859-4.165,11.672,11.672,0,0,0,1.169-8.947" transform="translate(-446.732 78.803)" fill="#962b4c"/>
      <path id="Path_123" data-name="Path 123" d="M740.963,288.912c-9.556,9.092-19.511,17.806-28.55,27.368-11.153,11.8-20.881,24.982-32.519,36.227-5.9,5.7-14.243,9.736-22.2,12.269-13.2,4.186-33.084-3.563-37.357-13.032-4.777-10.557-.206-30.284,11.512-37.75,10.755-6.841,23.285-11.681,35.684-15,15.2-4.077,31.184-5.138,46.6-8.511,7.685-1.684,14.869-5.616,22.274-8.524.161-1.655.327-3.3.494-4.948-12.979-3.753-25.837-8.018-38.962-11.153-16.637-3.977-33.942-5.7-50.078-11.029-8.757-2.9-18.857-9.752-22.631-17.558-4.375-9.055-6.434-23.071-2.3-31.387,5.347-10.768,20.292-16.339,32.06-11.166,13.953,6.123,26.824,15.874,38.281,26.141,10.675,9.548,18.487,22.174,28.3,32.76,5.666,6.1,12.821,10.839,19.308,16.188l4.164-1.766c-1.829-9.6-2.795-19.479-5.69-28.767-5.352-17.175-13.734-33.623-17.2-51.086-2.386-12.016-2.526-27.442,3.17-37.491,13.555-23.892,33.667-23.238,47.982.348,5.384,8.867,6.168,22.987,3.766,33.522-4.964,21.823-13.729,42.77-20.345,64.255-1.871,6.081-1.713,12.768-2.489,19.184,1.306.755,2.621,1.5,3.932,2.256,9.216-8.867,18.827-17.355,27.558-26.671,11.1-11.842,20.757-25.106,32.474-36.256,6.226-5.935,15.1-9.884,23.472-12.626,11.847-3.9,30.553,3.193,35.269,11.71,4.985,9.02,1.568,27.434-7.35,36.526-13.829,14.1-32.25,16.877-50.629,20.184A396.967,396.967,0,0,0,761.83,277.6c15.281,14.257,33.715,15.149,51.463,18.587,14.534,2.816,29.5,5.3,43.034,10.913C875.379,315,885.2,340.507,876.54,354c-8.649,13.467-34.24,16.566-50.513,4.1-11.311-8.651-20.366-20.237-30.313-30.635C783.437,314.641,771.27,301.7,759.051,288.8q-2.625,1.425-5.247,2.845c1.663,9.271,2.417,18.828,5.173,27.758,5.574,18.038,13.5,35.436,17.943,53.706,2.41,9.934,1.264,21.506-1.224,31.619-2.89,11.7-19.788,23.174-28.181,21.947-11.335-1.66-27.159-16.637-26.993-28.991a179.949,179.949,0,0,1,6.176-42.237c4.288-16.484,11.079-32.292,16.2-48.581,1.523-4.861,1.1-10.332,1.56-15.521-1.167-.8-2.336-1.626-3.5-2.431" transform="translate(-208.356 70.844)" fill="#e66b60"/>
      <path id="Path_124" data-name="Path 124" d="M915.233,0V144L860.075,11.116l-20.253,8.432,54.084,130.3-99.543-99.7-15.51,15.537L880.227,167.218l-132.8-54.889-8.369,20.308,130.9,54.108H728.786v21.971H871.222l-131.988,54.96,8.421,20.284,131.69-54.836L778.853,329.778l15.51,15.537L894.434,245.08,840.286,376.5l20.276,8.382L915.233,252.2V395.461h21.934V254.072L991.39,384.709l20.255-8.432L956.638,243.75l101.4,101.564,15.51-15.537L973.449,229.52,1104.036,283.5l8.366-20.311L980.617,208.716h143V186.745H981.121l131.112-54.593-8.422-20.29L973.1,166.294,1073.549,65.683l-15.51-15.537L956.633,151.713l54.551-132.387-20.277-8.382L937.166,141.368V0Z" transform="translate(-27.524 -147.261)" fill="#f89c88"/>
    </g>
  </g>
</svg>
